<svg width="60" height="60" viewBox="0 0 60 60" fill="none" xmlns="http://www.w3.org/2000/svg">
<g clip-path="url(#clip0_195_895)">
<path fill-rule="evenodd" clip-rule="evenodd" d="M18.5645 19.2054L29.389 18.6777C32.5068 18.6777 35.3208 19.9409 37.3674 21.9874C39.414 24.034 40.6771 26.848 40.6771 29.9659L40.1495 40.7903L29.4049 41.238C26.2871 41.238 23.4731 39.9749 21.4265 37.9283C19.3799 35.8817 18.1168 33.0677 18.1168 29.9499L18.5645 19.2054ZM29.4674 36.4882C33.0329 36.4882 35.9429 33.5942 35.9429 30.0127C35.9429 28.222 35.2234 26.6071 34.0402 25.4239C32.857 24.2407 31.2422 23.5212 29.4514 23.5212C25.8859 23.5212 22.9759 26.4152 22.9759 29.9967C22.9759 31.7875 23.6954 33.4023 24.8786 34.5855C26.0618 35.7687 27.6767 36.4882 29.4674 36.4882Z" fill="black"/>
<path fill-rule="evenodd" clip-rule="evenodd" d="M29.9495 10.54C19.2292 10.54 10.5387 19.2305 10.5387 29.9508C10.5387 40.6711 19.2292 49.3616 29.9495 49.3616C40.6698 49.3616 49.3603 40.6711 49.3603 29.9508C49.3603 19.2305 40.6698 10.54 29.9495 10.54ZM8.13733 29.9508C8.13733 17.9043 17.903 8.13867 29.9495 8.13867C41.996 8.13867 51.7616 17.9043 51.7616 29.9508C51.7616 41.9973 41.996 51.7629 29.9495 51.7629C17.903 51.7629 8.13733 41.9973 8.13733 29.9508Z" fill="black"/>
<path fill-rule="evenodd" clip-rule="evenodd" d="M29.95 2.00204C14.5142 2.00204 2.00107 14.5152 2.00107 29.9509C2.00107 45.3867 14.5142 57.8998 29.95 57.8998C45.3857 57.8998 57.8988 45.3867 57.8988 29.9509C57.8988 14.5152 45.3857 2.00204 29.95 2.00204ZM0.666992 29.9509C0.666992 13.7784 13.7774 0.667969 29.95 0.667969C46.1225 0.667969 59.2329 13.7784 59.2329 29.9509C59.2329 46.1235 46.1225 59.2339 29.95 59.2339C13.7774 59.2339 0.666992 46.1235 0.666992 29.9509Z" fill="black"/>
</g>
<defs>
<clipPath id="clip0_195_895">
<rect width="59.9" height="59.9" fill="white"/>
</clipPath>
</defs>
</svg>
