<svg width="785" height="94" viewBox="0 0 785 94" fill="none" xmlns="http://www.w3.org/2000/svg">
<g clip-path="url(#clip0_195_856)">
<path d="M370.643 81.6239H347.212V12.5181H370.643V81.6239ZM417.671 12.5181H390.023L370.643 43.0321V47.071L392.03 81.6239H419.679L394.075 45.0516L417.671 12.5181ZM163.306 12.5181V37.8013H144.804V12.5181H121.373V81.6239H144.804V55.9825H163.306V81.6239H186.737V12.5181H163.306ZM313.806 63.4736C304.567 63.4736 298.245 56.106 298.245 47.071C298.245 38.036 304.567 30.6684 313.806 30.6684C320.516 30.6684 325.328 34.275 326.63 35.9857L338.268 19.8363C335.082 16.8781 325.255 10.1652 311.24 10.1652C286.397 10.1652 273.672 29.6124 273.672 47.071C273.672 64.5297 286.397 83.9769 311.24 83.9769C325.261 83.9769 335.082 77.2639 338.268 74.3058L326.63 58.1564C325.328 59.867 320.516 63.4736 313.806 63.4736ZM249.308 81.6363C245.729 75.3556 239.16 73.0644 232.893 73.0644C226.625 73.0644 220.057 75.3556 216.478 81.6363H194.275L220.149 12.5057H245.649L271.523 81.6363H249.32H249.308ZM241.825 57.829L232.887 33.0337L223.949 57.829C223.949 57.829 227.503 56.2975 232.623 56.2975H233.138C238.264 56.2975 241.812 57.829 241.812 57.829H241.825ZM249.308 81.6363C245.729 75.3556 239.16 73.0644 232.893 73.0644C226.625 73.0644 220.057 75.3556 216.478 81.6363H194.275L220.149 12.5057H245.649L271.523 81.6363H249.32H249.308ZM241.825 57.829L232.887 33.0337L223.949 57.829C223.949 57.829 227.503 56.2975 232.623 56.2975H233.138C238.264 56.2975 241.812 57.829 241.812 57.829H241.825ZM785 12.5181H722.183V30.5758H741.876V81.6239H765.307V30.5758H785V12.5181ZM641.878 30.5758V12.5181H582.291V81.6239H605.722V81.5992H641.878V63.5415H605.722V54.8833H641.878V39.2403H605.722V30.582H641.878V30.5758ZM693.111 38.0422H679.643C677.599 38.0422 675.941 36.3747 675.941 34.3182C675.941 32.2617 677.599 30.5943 679.643 30.5943H712.675V12.5366H674.161C662.105 12.5366 652.351 22.4486 652.51 34.6085C652.664 46.5831 662.584 56.106 674.486 56.106H687.955C689.999 56.106 691.656 57.7735 691.656 59.83C691.656 61.8865 689.999 63.5539 687.955 63.5539H654.935V81.6116H693.436C705.493 81.6116 715.247 71.6996 715.087 59.5397C714.934 47.5651 705.014 38.0422 693.111 38.0422ZM546.355 12.5181V52.2524C546.355 57.3535 542.242 61.4912 537.172 61.4912C532.101 61.4912 527.988 57.3535 527.988 52.2524V12.5181H504.557V54.803C504.557 72.8977 518.94 83.8534 536.926 83.9892C555.054 84.1251 569.792 73.4226 569.792 55.2167V12.5181H546.361H546.355ZM483.416 65.6845L498.136 60.0338L496.896 79.4377C496.896 79.4377 477.916 83.9769 457.241 83.9769C431.225 83.9769 419.673 62.8066 419.673 45.9038C419.673 29.001 432.398 10.1713 457.241 10.1713C482.084 10.1713 493.397 27.0556 492.71 44.1499C492.341 53.3764 487.676 61.5592 483.416 65.0793V65.6845ZM457.247 63.4736C465.651 63.4736 470.236 55.6305 470.236 47.0957C470.236 38.5609 465.651 30.6746 457.247 30.6746C448.843 30.6746 444.258 38.5609 444.258 47.0957C444.258 55.6305 448.843 63.4736 457.247 63.4736ZM79.7529 13.7656C88.2119 22.2757 93.4359 34.0156 93.4359 46.9969L91.2567 92.0979L46.721 93.9938C33.8176 93.9938 22.142 88.7321 13.6891 80.2282C5.2301 71.7243 0 59.9844 0 47.0031L1.88455 2.19237L46.721 0C59.6244 0 71.3 5.26168 79.7529 13.7656ZM66.0085 28.192C61.1467 23.3008 54.4311 20.2686 47.0157 20.2686C32.1786 20.2686 20.1469 32.3729 20.1469 47.2995C20.1469 54.7597 23.161 61.5159 28.0228 66.4071C32.8846 71.2982 39.6002 74.3305 47.0157 74.3305C61.8465 74.3305 73.8782 62.2323 73.8844 47.2995C73.8844 39.8393 70.8703 33.0831 66.0085 28.192Z" fill="black"/>
</g>
<defs>
<clipPath id="clip0_195_856">
<rect width="785" height="94" fill="white"/>
</clipPath>
</defs>
</svg>
