<svg preserveAspectRatio="none" width="100%" height="100%" overflow="visible" style="display: block;" viewBox="0 0 556.949 405.483" fill="none" xmlns="http://www.w3.org/2000/svg">
<g id="Group">
<path id="Vector" d="M556.311 315.199L533.089 385.925C533.089 385.925 441.754 393.972 389.768 398.846C337.783 403.735 260.594 417.154 177.226 375.594C84.1585 329.2 55.7271 273.099 44.2271 236.358C32.7409 199.603 0.637812 90.557 0.637812 90.557L20.7836 18.4183L22.4879 21.3404C23.2638 23.9163 27.2403 37.1973 47.6494 105.375C68.5849 175.298 70.8572 229.198 164.257 286.421C257.67 343.631 339.695 336.277 381.538 332.261C420.153 328.55 538.576 316.93 556.311 315.199Z" fill="url(#paint0_linear_0_33)" stroke="var(--stroke-0, black)" stroke-width="1.27562" stroke-linecap="round" stroke-linejoin="round"/>
<path id="Vector_2" d="M511.779 167.945C494.363 107.702 454.528 72.5675 394.936 37.7653C335.343 2.96316 259.679 -1.38538 230.222 1.28745C200.752 3.97413 22.3072 20.7036 22.3072 20.7036L22.4874 21.3267C23.2633 23.9026 27.2398 37.1837 47.6488 105.362C68.5844 175.284 70.8567 229.184 164.256 286.408C257.67 343.617 339.694 336.264 381.538 332.247C420.153 328.536 536.289 317.152 554.024 315.421C555.52 315.269 556.31 315.186 556.31 315.186C556.31 315.186 529.181 228.173 511.779 167.945ZM416.841 205.96C405.771 244.002 361.807 266.396 309.78 264.762C295.107 264.291 279.783 261.923 264.362 257.436C211.642 242.105 172.985 206.527 163.176 169.066C159.933 156.782 159.823 144.291 163.328 132.242C177.53 83.4527 245.796 60.4082 315.793 80.766C385.805 101.124 431.043 157.184 416.841 205.96Z" fill="var(--fill-0, white)" stroke="var(--stroke-0, black)" stroke-width="1.27562" stroke-linecap="round" stroke-linejoin="round"/>
<path id="Vector_3" d="M315.794 80.7799C245.796 60.4221 177.53 83.4666 163.329 132.256C159.823 144.305 159.934 156.796 163.176 169.08C163.398 169.953 163.661 170.825 163.924 171.698C192.48 145.856 243.76 136.868 296.036 152.06C347.509 167.031 385.584 201.293 396.502 237.784C406.187 229.018 413.253 218.327 416.856 205.974C431.058 157.198 385.819 101.138 315.808 80.7799H315.794Z" fill="var(--fill-0, white)" stroke="var(--stroke-0, black)" stroke-width="1.27562" stroke-linecap="round" stroke-linejoin="round"/>
<path id="Vector_4" d="M416.842 205.974C430.378 159.483 389.92 106.373 325.479 83.8682C325.506 83.8682 386.387 109.419 404.122 174.731C418.56 227.924 396.502 237.771 396.502 237.771C406.187 229.004 413.253 218.313 416.855 205.96L416.842 205.974Z" fill="var(--fill-0, black)" stroke="var(--stroke-0, black)" stroke-width="1.27562" stroke-linecap="round" stroke-linejoin="round"/>
</g>
<defs>
<linearGradient id="paint0_linear_0_33" x1="233.534" y1="237.147" x2="579.55" y2="333.939" gradientUnits="userSpaceOnUse">
<stop stop-color="white"/>
<stop offset="0.2" stop-color="#FFFAE0"/>
<stop offset="0.99" stop-color="#FFE866"/>
</linearGradient>
</defs>
</svg>
