<svg preserveAspectRatio="none" width="100%" height="100%" overflow="visible" style="display: block;" viewBox="0 0 58.5659 58.5659" fill="none" xmlns="http://www.w3.org/2000/svg">
<g id="Group 427319005">
<path id="Subtract" fill-rule="evenodd" clip-rule="evenodd" d="M17.8975 18.5377L28.722 18.0101C31.8398 18.0101 34.6539 19.2732 36.7004 21.3198C38.747 23.3663 40.0101 26.1804 40.0101 29.2982L39.4825 40.1226L28.738 40.5703C25.6202 40.5703 22.8061 39.3072 20.7596 37.2606C18.713 35.2141 17.4499 32.4 17.4499 29.2822L17.8975 18.5377ZM28.8004 35.8205C32.366 35.8205 35.2759 32.9265 35.2759 29.345C35.2759 27.5543 34.5564 25.9394 33.3733 24.7562C32.1901 23.5731 30.5752 22.8536 28.7845 22.8536C25.2189 22.8536 22.309 25.7475 22.309 29.329C22.309 31.1198 23.0285 32.7347 24.2116 33.9178C25.3948 35.101 27.0097 35.8205 28.8004 35.8205Z" fill="var(--fill-0, black)"/>
<path id="Vector (Stroke)" fill-rule="evenodd" clip-rule="evenodd" d="M29.2825 9.87168C18.5622 9.87168 9.87168 18.5622 9.87168 29.2825C9.87168 40.0028 18.5622 48.6933 29.2825 48.6933C40.0028 48.6933 48.6933 40.0028 48.6933 29.2825C48.6933 18.5622 40.0028 9.87168 29.2825 9.87168ZM7.47035 29.2825C7.47035 17.236 17.236 7.47035 29.2825 7.47035C41.329 7.47035 51.0946 17.236 51.0946 29.2825C51.0946 41.329 41.329 51.0946 29.2825 51.0946C17.236 51.0946 7.47035 41.329 7.47035 29.2825Z" fill="var(--fill-0, black)"/>
<path id="Vector (Stroke)_2" fill-rule="evenodd" clip-rule="evenodd" d="M29.283 1.33408C13.8472 1.33408 1.33408 13.8472 1.33408 29.283C1.33408 44.7187 13.8472 57.2318 29.283 57.2318C44.7187 57.2318 57.2318 44.7187 57.2318 29.283C57.2318 13.8472 44.7187 1.33408 29.283 1.33408ZM0 29.283C0 13.1104 13.1104 0 29.283 0C45.4555 0 58.5659 13.1104 58.5659 29.283C58.5659 45.4555 45.4555 58.5659 29.283 58.5659C13.1104 58.5659 0 45.4555 0 29.283Z" fill="var(--fill-0, black)"/>
</g>
</svg>
