<svg preserveAspectRatio="none" width="100%" height="100%" overflow="visible" style="display: block;" viewBox="0 0 379.705 296.626" fill="none" xmlns="http://www.w3.org/2000/svg">
<g id="Group">
<g id="Group_2">
<path id="Vector" d="M8.04771 212.691C8.04771 212.691 34.463 234.682 38.992 237.974C43.5211 241.267 47.8443 243.119 55.8731 242.296C63.9019 241.472 73.732 239.801 73.732 239.801L76.8844 208.73L8.06059 212.691H8.04771Z" fill="var(--fill-0, black)" stroke="var(--stroke-0, black)" stroke-width="1.27562" stroke-linecap="round" stroke-linejoin="round"/>
<path id="Vector_2" d="M70.5541 271.077L102.592 295.988C102.592 295.988 166.411 225.371 166.823 225.602C167.234 225.834 326.974 203.611 337.473 202.376C347.972 201.142 366.706 194.763 368.765 170.482C370.824 146.202 377.205 63.0839 378.441 52.5897C379.676 42.0955 380.088 35.9224 369.794 27.4859C359.501 19.0494 339.403 4.22116 339.403 4.22116L119.821 193.567L70.567 271.09L70.5541 271.077Z" fill="url(#paint0_linear_0_9)" stroke="var(--stroke-0, black)" stroke-width="1.27562" stroke-linecap="round" stroke-linejoin="round"/>
<path id="Vector_3" d="M11.2005 68.524C9.48924 88.7279 1.91075 181.131 0.842812 189.966C-0.225121 198.801 2.36107 217.488 21.0563 215.468C39.7516 213.449 76.8848 208.395 76.8848 208.395L70.5673 270.756L134.733 199.56C134.733 199.56 295.387 177.337 306.503 175.575C317.62 173.813 333.279 168.798 335.556 148.066C337.834 127.335 345.412 34.4307 346.171 24.5924C346.93 14.7541 346.429 -2.4276 320.155 1.10905C293.881 4.6457 59.978 37.9674 47.3558 39.7421C34.7336 41.5169 13.1176 46.2495 11.2391 68.524H11.2005Z" fill="var(--fill-0, white)" stroke="var(--stroke-0, black)" stroke-width="1.27562" stroke-linecap="round" stroke-linejoin="round"/>
</g>
<path id="Vector_4" d="M124.092 51.9724L84.5915 57.7339C84.5915 57.7339 36.7017 113.279 36.5087 113.279C36.3157 113.279 77.2832 156.104 77.8493 156.104C78.4155 156.104 114.841 150.098 114.841 150.098L74.0665 108.186L124.092 51.9595V51.9724Z" fill="var(--fill-0, white)" stroke="var(--stroke-0, black)" stroke-width="1.27562" stroke-linecap="round" stroke-linejoin="round"/>
<path id="Vector_5" d="M124.092 51.9725C124.092 51.9725 155.423 76.4976 155.989 76.4976C156.555 76.4976 106.529 132.724 106.529 132.724L74.0667 108.199L124.092 51.9725Z" fill="url(#paint1_linear_0_9)" stroke="var(--stroke-0, black)" stroke-width="1.27562" stroke-linecap="round" stroke-linejoin="round"/>
<path id="Vector_6" d="M77.8496 156.104C77.8496 156.104 109.373 181.568 109.746 181.568C110.119 181.568 148.063 176.102 148.063 175.909C148.063 175.717 114.841 150.098 114.841 150.098L77.8496 156.104Z" fill="var(--fill-0, black)" stroke="var(--stroke-0, black)" stroke-width="1.27562" stroke-linecap="round" stroke-linejoin="round"/>
<path id="Vector_7" d="M106.542 132.711L74.0667 108.186L114.841 150.098L148.063 175.922L106.542 132.711Z" fill="url(#paint2_linear_0_9)" stroke="var(--stroke-0, black)" stroke-width="1.27562" stroke-linecap="round" stroke-linejoin="round"/>
<path id="Vector_8" d="M173.475 142.048L205.513 168.013L244.177 162.766L211.47 137.058L173.475 142.048Z" fill="var(--fill-0, black)" stroke="var(--stroke-0, black)" stroke-width="1.27562" stroke-linecap="round" stroke-linejoin="round"/>
<path id="Vector_9" d="M182.095 43.5231C182.095 43.5231 219.434 37.6072 220.116 37.6072C220.798 37.6072 261.097 81.3073 261.097 81.3073L211.457 137.071L173.475 142.061L223.346 86.4515L182.082 43.5231H182.095Z" fill="var(--fill-0, white)" stroke="var(--stroke-0, black)" stroke-width="1.27562" stroke-linecap="round" stroke-linejoin="round"/>
<path id="Vector_10" d="M261.109 81.3073L211.469 137.058L244.176 162.766L294.099 106.141L261.109 81.3073Z" fill="url(#paint3_linear_0_9)" stroke="var(--stroke-0, black)" stroke-width="1.27562" stroke-linecap="round" stroke-linejoin="round"/>
<path id="Vector_11" d="M220.116 37.6072L261.109 81.3073L294.099 106.141L251.485 62.4152L220.116 37.6072Z" fill="url(#paint4_linear_0_9)" stroke="var(--stroke-0, black)" stroke-width="1.27562" stroke-linecap="round" stroke-linejoin="round"/>
</g>
<defs>
<linearGradient id="paint0_linear_0_9" x1="70.5541" y1="150.098" x2="379.058" y2="150.098" gradientUnits="userSpaceOnUse">
<stop stop-color="white"/>
<stop offset="0.99" stop-color="#FFE866"/>
</linearGradient>
<linearGradient id="paint1_linear_0_9" x1="74.0667" y1="92.3417" x2="155.989" y2="92.3417" gradientUnits="userSpaceOnUse">
<stop stop-color="white"/>
<stop offset="0.99" stop-color="#FFE866"/>
</linearGradient>
<linearGradient id="paint2_linear_0_9" x1="74.0667" y1="142.048" x2="148.063" y2="142.048" gradientUnits="userSpaceOnUse">
<stop stop-color="white"/>
<stop offset="0.99" stop-color="#FFE866"/>
</linearGradient>
<linearGradient id="paint3_linear_0_9" x1="211.469" y1="122.037" x2="294.099" y2="122.037" gradientUnits="userSpaceOnUse">
<stop stop-color="white"/>
<stop offset="0.99" stop-color="#FFE866"/>
</linearGradient>
<linearGradient id="paint4_linear_0_9" x1="220.116" y1="71.8677" x2="294.099" y2="71.8677" gradientUnits="userSpaceOnUse">
<stop stop-color="white"/>
<stop offset="0.99" stop-color="#FFE866"/>
</linearGradient>
</defs>
</svg>
