<svg preserveAspectRatio="none" width="100%" height="100%" overflow="visible" style="display: block;" viewBox="0 0 332.843 335.911" fill="none" xmlns="http://www.w3.org/2000/svg">
<g id="Group">
<g id="Group_2">
<path id="Vector" d="M329.261 142.184C324.439 125.219 311.498 85.888 311.498 85.888H311.484L253.153 98.2828C216.865 80.667 165.822 55.6422 158.922 52.0969C151.163 48.1222 135.104 40.3669 118.422 40.63L121.609 13.8602H121.595C120.93 14.4972 99.8005 34.4534 89.7968 44.5908C84.3101 50.1857 78.4631 56.0576 73.2534 65.2948C63.0004 83.5199 11.7075 174.631 11.7075 174.631C2.93701 190.599 -3.57506 200.224 3.92074 225.845C11.4165 251.465 37.4925 260.91 51.057 267.82C64.6353 274.745 157.314 321.083 170.865 327.19C184.416 333.284 198.105 337.245 217.724 334.253C220.454 333.838 223.072 333.242 225.58 332.495C227.146 332.038 228.656 331.511 230.139 330.916C243.288 325.709 252.876 316.139 258.695 306.196C266.204 293.344 323.344 191.333 329.081 179.825C333.223 171.529 333.209 156.116 329.261 142.184Z" fill="var(--fill-0, white)" stroke="var(--stroke-0, black)" stroke-width="1.27562" stroke-linecap="round" stroke-linejoin="round"/>
<path id="Vector_2" d="M252.224 215.61C251.85 216.289 239.491 237.962 234.628 263.236C230.79 283.137 230.194 316.485 230.139 330.916C228.656 331.511 227.146 332.038 225.58 332.495C224.652 316.236 221.52 268.097 215.798 253.722C209.591 238.115 198.659 230.761 192.77 227.797C201.915 231.453 211.572 233.503 224.693 231.509C236.831 229.667 246.072 223.199 252.224 215.61Z" fill="var(--fill-0, black)" stroke="var(--stroke-0, black)" stroke-width="1.27562" stroke-linecap="round" stroke-linejoin="round"/>
<path id="Vector_3" fill-rule="evenodd" clip-rule="evenodd" d="M310.153 112.99C305.747 121.812 261.895 200.113 256.131 209.974C255.009 211.885 253.72 213.768 252.238 215.596H252.224C246.072 223.199 236.83 229.667 224.693 231.509C211.572 233.503 201.915 231.453 192.77 227.797C191.412 227.257 190.082 226.689 188.738 226.08C178.333 221.399 107.199 185.835 96.7933 180.531C86.374 175.213 66.3667 167.97 60.6167 148.305C54.8528 128.639 59.8546 121.258 66.5884 109.002C66.5884 109.002 105.952 39.0789 113.822 25.0916C116.343 20.6046 118.879 16.9208 121.595 13.874H121.608C127.331 7.4343 133.884 3.8613 143.14 1.61778C158.519 -2.12141 174.938 5.78628 182.115 9.47008C189.292 13.1539 258.819 47.1805 277.856 56.21C296.894 65.2256 301.466 68.5631 308.103 78.6451C309.544 80.8332 310.666 83.2845 311.484 85.888C314.421 95.1252 313.59 106.107 310.153 112.99Z" fill="url(#paint0_linear_0_22)" stroke="var(--stroke-0, black)" stroke-width="1.27562" stroke-linecap="round" stroke-linejoin="round"/>
<path id="Vector_4" d="M252.196 215.652C251.462 216.967 239.422 238.364 234.628 263.236C230.79 283.137 230.194 316.485 230.139 330.916C228.656 331.511 227.146 332.038 225.58 332.495C224.652 316.236 221.52 268.097 215.798 253.722C209.591 238.115 198.659 230.761 192.77 227.797C201.915 231.453 211.572 233.503 224.693 231.509C236.803 229.667 246.045 223.227 252.196 215.652Z" fill="var(--fill-0, black)" stroke="var(--stroke-0, black)" stroke-width="1.27562" stroke-linecap="round" stroke-linejoin="round"/>
</g>
<path id="Vector_5" fill-rule="evenodd" clip-rule="evenodd" d="M199.657 48.302L186.522 41.9039L166.819 51.3488L162.136 30.0216L149.001 23.6095L156.22 56.4313L125.904 70.9588L139.039 77.3569L158.741 67.9259L163.425 89.2531L176.559 95.6513L169.341 62.8295L199.657 48.302Z" fill="var(--fill-0, white)" stroke="var(--stroke-0, black)" stroke-width="1.27562" stroke-linecap="round" stroke-linejoin="round"/>
</g>
<defs>
<linearGradient id="paint0_linear_0_22" x1="58.095" y1="116.452" x2="313.285" y2="116.452" gradientUnits="userSpaceOnUse">
<stop stop-color="white"/>
<stop offset="0.99" stop-color="#FFE866"/>
</linearGradient>
</defs>
</svg>
