<svg preserveAspectRatio="none" width="100%" height="100%" overflow="visible" style="display: block;" viewBox="0 0 254 73" fill="none" xmlns="http://www.w3.org/2000/svg">
<g id="Layer_1" clip-path="url(#clip0_0_30)">
<path id="Vector" d="M203.105 33.0969H192.392V2.01229H203.105V33.0936V33.0969ZM224.606 2.01565H211.965L203.105 15.7388V17.5563L212.885 33.0969H225.526L213.818 16.6459L224.606 2.01229V2.01565ZM107.744 2.01565V13.3873H99.2849V2.01229H88.5716V33.0936H99.2849V21.5607H107.744V33.0936H118.458V2.01229H107.744V2.01565ZM177.119 24.9335C172.893 24.9335 170.004 21.6212 170.004 17.5563C170.004 13.4914 172.893 10.179 177.119 10.179C180.188 10.179 182.388 11.8016 182.982 12.5709L188.301 5.30787C186.845 3.97754 182.35 0.957432 175.941 0.957432C164.583 0.957432 158.765 9.70534 158.765 17.5563C158.765 25.4072 164.583 34.1551 175.941 34.1551C182.35 34.1551 186.841 31.1384 188.301 29.8047L182.982 22.5416C182.388 23.311 180.188 24.9335 177.119 24.9335ZM147.349 33.1036C145.713 30.2784 142.708 29.247 139.843 29.247C136.978 29.247 133.974 30.2784 132.338 33.1036H120.783L134.012 2.00893H145.672L158.904 33.1003H147.349V33.1036ZM143.927 22.3972L139.84 11.2439L135.753 22.3972C135.753 22.3972 137.379 21.7085 139.721 21.7085H139.959C142.301 21.7085 143.927 22.3972 143.927 22.3972ZM254 39.4428H225.282V47.5659H234.284V70.5275H244.998V47.5659H254V39.4428ZM188.563 47.5659V39.4428H161.318V70.5241H172.031V70.514H188.563V62.391H172.031V58.4974H188.563V51.4595H172.031V47.5659H188.563ZM211.989 50.9219H205.831C204.894 50.9219 204.137 50.1728 204.137 49.2456C204.137 48.3184 204.894 47.5693 205.831 47.5693H220.933V39.4462H203.322C197.809 39.4462 193.349 43.9041 193.424 49.3733C193.495 54.7584 198.03 59.0416 203.472 59.0416H209.629C210.566 59.0416 211.323 59.7908 211.323 60.718C211.323 61.6452 210.566 62.3943 209.629 62.3943H194.534V70.5174H212.135C217.647 70.5174 222.108 66.0595 222.033 60.5903C221.962 55.2052 217.427 50.9219 211.985 50.9219H211.989ZM144.888 39.4428V57.3115C144.888 59.606 143.007 61.4671 140.689 61.4671C138.37 61.4671 136.49 59.606 136.49 57.3115V39.4428H125.776V58.4605C125.776 66.597 132.355 71.5252 140.577 71.5857C148.866 71.6462 155.604 66.8321 155.604 58.6452V39.4428H144.891H144.888ZM116.112 63.3551L122.843 60.8154L122.276 69.5432C122.276 69.5432 113.596 71.5857 104.146 71.5857C92.2513 71.5857 86.9693 62.0618 86.9693 54.4594C86.9693 46.8571 92.7876 38.388 104.146 38.388C115.504 38.388 120.678 45.9836 120.362 53.6699C120.192 57.8222 118.06 61.4974 116.112 63.083V63.3551ZM104.146 62.3607C107.989 62.3607 110.086 58.8334 110.086 54.9936C110.086 51.1537 107.989 47.6062 104.146 47.6062C100.303 47.6062 98.2054 51.1537 98.2054 54.9936C98.2054 58.8334 100.303 62.3607 104.146 62.3607ZM62.9628 10.693C69.64 17.301 73.7678 26.4218 73.7678 36.5034L72.0467 71.5286L36.8856 73.0034C26.6984 73.0034 17.4821 68.9183 10.805 62.3103C4.12782 55.7024 0 46.5816 0 36.5L1.49022 1.70322L36.8822 0C47.0693 0 56.2857 4.08504 62.9628 10.693ZM52.1137 21.8966C48.2778 18.1005 42.9755 15.7456 37.1198 15.7456C25.4051 15.7489 15.9104 25.1485 15.9104 36.7352C15.9104 42.5301 18.29 47.7775 22.1259 51.5737C25.9618 55.3698 31.2641 57.7248 37.1198 57.7248C48.8311 57.7248 58.3258 48.3285 58.3292 36.7352C58.3292 30.9402 55.9496 25.6928 52.1137 21.8966Z" fill="var(--fill-0, black)"/>
</g>
<defs>
<clipPath id="clip0_0_30">
<rect width="254" height="73" fill="white"/>
</clipPath>
</defs>
</svg>
