<svg preserveAspectRatio="none" width="100%" height="100%" overflow="visible" style="display: block;" viewBox="0 0 317.914 291.2" fill="none" xmlns="http://www.w3.org/2000/svg">
<g id="Vector" style="mix-blend-mode:multiply">
<path d="M313.078 176.213C294.276 109.018 250.161 52.3902 191.635 17.2695C180.786 10.7467 169.425 4.97174 157.648 0C102.794 7.7969 55.9211 14.472 50.268 15.2614C36.662 17.1726 13.3987 22.2689 11.3619 46.2552C9.53302 68.0117 1.37214 167.516 0.222141 177.03C-0.595331 183.76 0.568519 195.754 8.39685 201.473H7.96733C7.96733 201.473 36.4264 225.168 41.3035 228.714C46.1807 232.259 50.8361 234.253 59.4681 233.367C67.9476 232.495 78.2699 230.75 78.6717 230.694L75.291 264.028L76.0392 263.197L75.291 264.375L109.791 291.2C109.791 291.2 178.514 215.156 178.957 215.405C179.262 215.571 263.434 203.924 317.914 196.46C316.57 189.618 314.949 182.86 313.078 176.213ZM82.0524 197.222L77.6464 197.485C80.4314 197.111 82.094 196.875 82.094 196.875L82.0524 197.222Z" fill="var(--fill-0, #EDEDED)"/>
</g>
</svg>
